<?xml version="1.0" encoding="UTF-8" standalone="no"?>
<!-- Created with Inkscape (http://www.inkscape.org/) -->

<svg
   width="1000"
   height="1000"
   viewBox="0 0 264.58333 264.58333"
   version="1.1"
   id="svg1"
   inkscape:version="1.4 (e7c3feb1, 2024-10-09)"
   sodipodi:docname="VowDivalogo.svg"
   xmlns:inkscape="http://www.inkscape.org/namespaces/inkscape"
   xmlns:sodipodi="http://sodipodi.sourceforge.net/DTD/sodipodi-0.dtd"
   xmlns:xlink="http://www.w3.org/1999/xlink"
   xmlns="http://www.w3.org/2000/svg"
   xmlns:svg="http://www.w3.org/2000/svg">
  <sodipodi:namedview
     id="namedview1"
     pagecolor="#ffffff"
     bordercolor="#000000"
     borderopacity="0.25"
     inkscape:showpageshadow="2"
     inkscape:pageopacity="0.0"
     inkscape:pagecheckerboard="0"
     inkscape:deskcolor="#d1d1d1"
     inkscape:document-units="mm"
     inkscape:zoom="0.43919052"
     inkscape:cx="478.1524"
     inkscape:cy="496.36773"
     inkscape:window-width="1424"
     inkscape:window-height="803"
     inkscape:window-x="0"
     inkscape:window-y="23"
     inkscape:window-maximized="0"
     inkscape:current-layer="layer1" />
  <defs
     id="defs1">
    <rect
       x="283.36403"
       y="661.7194"
       width="489.44695"
       height="107.87153"
       id="rect14" />
    <rect
       x="128.80183"
       y="561.89798"
       width="325.22462"
       height="241.50343"
       id="rect12" />
    <rect
       x="202.86288"
       y="642.39913"
       width="481.39684"
       height="59.570846"
       id="rect10" />
    <linearGradient
       id="linearGradient9"
       inkscape:collect="always">
      <stop
         style="stop-color:#dbc00e;stop-opacity:0.99607843;"
         offset="0"
         id="stop9" />
      <stop
         style="stop-color:#aa8211;stop-opacity:0.99607843;"
         offset="1"
         id="stop10" />
    </linearGradient>
    <linearGradient
       id="linearGradient7"
       inkscape:collect="always">
      <stop
         style="stop-color:#d2b40e;stop-opacity:0.99607843;"
         offset="0"
         id="stop7" />
      <stop
         style="stop-color:#a37314;stop-opacity:1;"
         offset="1"
         id="stop8" />
    </linearGradient>
    <linearGradient
       inkscape:collect="always"
       xlink:href="#linearGradient7"
       id="linearGradient8"
       x1="124.6745"
       y1="104.18679"
       x2="198.05451"
       y2="104.18679"
       gradientUnits="userSpaceOnUse" />
    <linearGradient
       inkscape:collect="always"
       xlink:href="#linearGradient9"
       id="linearGradient10"
       x1="189.87521"
       y1="159.62164"
       x2="202.38243"
       y2="86.778175"
       gradientUnits="userSpaceOnUse" />
  </defs>
  <g
     inkscape:label="Layer 1"
     inkscape:groupmode="layer"
     id="layer1">
    <g
       id="g10"
       transform="matrix(2.6576336,0.11513035,-0.11535482,2.4839404,-308.48829,-179.11077)">
      <g
         id="g3"
         transform="translate(107.38938,-2.7733374)">
        <path
           style="fill:#a47512;fill-opacity:0.996078;stroke-width:0.264583"
           d="m 51.131593,89.612067 6.92799,-0.978956 c 0,0 2.409738,1.656694 0.225919,3.238085 -2.183825,1.581388 -17.771805,3.614604 -17.771805,3.614604 0,0 6.250252,-9.036512 11.747463,-9.262424 5.49721,-0.225914 4.894778,1.280171 4.894778,1.280171 z"
           id="path1"
           sodipodi:nodetypes="ccscscc" />
        <path
           style="fill:#a47512;fill-opacity:0.996078;stroke-width:0.264583"
           d="m 53.466023,78.090516 3.539299,6.927993 c 0,0 -3.91582,1.957908 -8.057554,-6.325558 -4.141735,-8.283469 -4.141735,-8.208166 -4.141735,-8.208166 0,0 6.702079,1.355476 9.638946,3.840517 2.936867,2.485041 2.861561,9.036513 2.861561,9.036513 z"
           id="path2" />
        <path
           style="fill:#a47512;fill-opacity:0.996078;stroke-width:0.264583"
           d="m 62.803751,81.177992 -2.63565,6.02434 c 0,0 2.10852,1.054258 3.840517,-0.52713 1.732,-1.58139 6.626776,-12.500509 6.626776,-12.500509 0,0 -9.940161,4.292343 -10.919116,7.379819 -0.978956,3.087473 0.0753,4.141735 0.0753,4.141735 z"
           id="path3" />
      </g>
      <path
         style="fill:#a47512;fill-opacity:0.996078;stroke-width:0.264583"
         d="m 129.60601,91.214082 c 0,0 6.23003,-2.28967 7.082,-1.863685 0.85197,0.425987 1.75719,0.372737 1.91693,1.597445 0.15975,1.224709 -0.31949,2.981897 -4.89883,2.129925 -4.57934,-0.851969 -4.1001,-1.863685 -4.1001,-1.863685 z"
         id="path4" />
      <path
         style="fill:#a47512;fill-opacity:0.996078;stroke-width:0.264583"
         d="m 132.37491,102.9553 c 0,0 2.28552,-3.805822 4.28648,-3.088393 1.75504,0.629273 -0.63898,2.183183 -0.63898,2.183183 z"
         id="path5"
         sodipodi:nodetypes="cscc" />
      <path
         style="fill:url(#linearGradient8);fill-opacity:0.996078;stroke-width:0.264583"
         d="m 178.32143,68.116025 c 0,0 10.24138,5.572516 7.68104,12.801724 -2.56035,7.22921 -10.77516,11.865963 -16.7242,14.049788 -5.40225,1.983107 -19.67159,8.279613 -25.00507,-6.794737 -5.09629,-14.403955 -2.92695,6.752841 -2.47212,6.585796 0,0 -0.15282,9.352864 20.48055,6.641914 19.87099,-1.965178 -8.82699,1.63661 -14.98556,1.35547 -3.43082,-0.15662 -11.89806,3.3134 -16.26571,7.68104 -4.36765,4.36765 -5.57251,7.98225 -6.32556,11.29564 -0.75304,3.31339 12.64019,-13.39059 28.01318,-11.89807 15.51269,1.50609 0.34481,-0.0775 0.34481,-0.0775 0,0 -5.16428,-1.42855 -8.92949,8.36101 -3.67087,9.54426 3.16278,22.13945 3.16278,22.13945 0,0 -3.01924,-15.50432 22.13945,-28.16379 23.64554,-11.89808 3.31339,-1.95792 3.31339,-1.95792 0,0 25.00101,-7.83164 25.30223,-24.24797 0.30122,-16.416327 -19.72972,-17.771805 -19.72972,-17.771805 z"
         id="path6"
         sodipodi:nodetypes="cssscssssscscscsc" />
      <path
         style="fill:url(#linearGradient10);fill-opacity:0.996078;stroke-width:0.264583"
         d="m 198.09511,80.031318 c 4.48012,4.780917 2.31108,10.396722 1.53648,13.722479 0,0 -4.66887,8.818703 -4.66887,10.919133 0,2.25913 0.59946,7.49633 1.88261,9.56364 1.35548,2.18382 -4.59355,2.56034 -5.57251,2.71095 -0.97896,0.15061 0.45182,3.38869 0.0753,3.84051 -0.37652,0.45183 -0.90365,1.20488 -2.71095,1.50609 -1.73408,0.28901 -0.0753,1.12956 0.30121,2.03321 0.37652,0.90365 -2.93686,0.0753 -3.6146,1.28018 -0.67774,1.20487 -0.22591,3.76521 -1.88261,5.12069 -1.65669,1.35547 -8.28347,-3.16278 -12.34989,-3.84052 -4.06644,-0.67774 -5.49722,7.83164 -5.49722,7.83164 0,0 0.52713,4.36765 2.86157,7.75634 2.33443,3.38869 15.43737,17.92241 15.13615,20.10624 -0.52727,3.82273 1.20487,2.63565 1.20487,2.63565 0,0 0.45183,-10.84382 -1.8073,-14.0819 -3.59983,-5.15975 4.70442,-11.51736 4.36764,-10.84382 -0.75304,1.50609 -2.28272,11.30633 -0.60243,17.01877 1.29049,4.38727 6.55147,8.73529 6.55147,8.73529 0,0 -2.93687,-9.63894 -2.40974,-11.22033 0.52713,-1.58138 -0.28985,-6.42041 2.63565,-13.55477 3.07314,-7.49436 -2.61164,-0.47075 0.82835,-1.28017 0,0 -0.45388,11.82769 7.68104,16.94346 7.30451,4.59356 8.50938,3.46399 8.50938,3.46399 0,0 -9.33773,-6.92798 -7.0033,-17.99771 2.33443,-11.06973 -2.25913,-14.38312 -2.25913,-14.38312 0,0 10.16608,9.03651 9.63895,15.28677 -0.55477,6.57813 0,9.26242 0,9.26242 0,0 4.15967,-7.55406 3.61461,-13.70538 -0.52714,-5.94903 -7.60574,-12.4252 -7.75635,-13.70537 -0.15061,-1.28017 -1.57817,-4.04612 -0.37652,-2.71095 1.35548,1.50608 10.24139,2.78626 11.59686,2.10852 1.48791,-0.74395 -9.52738,-4.82048 -10.16608,-7.45512 -0.60243,-2.48505 -4.44295,-5.79843 -3.464,-21.386413 0.97896,-15.58799 -7.93735,-17.487701 -7.93735,-17.487701 z"
         id="path7"
         sodipodi:nodetypes="ccssssssssscsscssscsscscscscsssssscc" />
    </g>
  </g>
</svg>
